# AST/ASF file generated using VICON BodyLanguage
# -----------------------------------------------
:version 1.10
:name VICON
:units
  mass 1.0
  length 0.45
  angle deg
:documentation
   .ast/.asf automatically generated from VICON data using
   VICON BodyBuilder and BodyLanguage model FoxedUp or BRILLIANT.MOD
:root
   order TX TY TZ RX RY RZ
   axis XYZ
   position 0 0 0  
   orientation 0 0 0 
:bonedata
  begin
     id 1 
     name lhipjoint
     direction 0.623529 -0.717805 0.309788 
     length 2.23224 
     axis 0 0 0  XYZ
  end
  begin
     id 2 
     name lfemur
     direction 0.34202 -0.939693 0  
     length 7.11402  
     axis 0 0 20  XYZ
    dof rx ry rz
    limits (-160.0 20.0)
           (-70.0 70.0)
           (-60.0 70.0)
  end
  begin
     id 3 
     name ltibia
     direction 0.34202 -0.939693 0   
     length 6.78496   
     axis 0 0 20   XYZ
    dof rx
    limits (-10.0 170.0)
  end
  begin
     id 4 
     name lfoot
     direction 0.125078 -0.343648 0.930732   
     length 1.84054   
     axis -90 7.62852e-016 20   XYZ
    dof rx rz
    limits (-45.0 90.0)
           (-70.0 20.0)
  end
  begin
     id 5 
     name ltoes
     direction 1.53565e-011 -4.21893e-011 1   
     length 0.916474   
     axis -90 7.62852e-016 20   XYZ
    dof rx
    limits (-90.0 20.0)
  end
  begin
     id 6 
     name rhipjoint
     direction -0.564688 -0.757748 0.327026   
     length 2.11457  
     axis 0 0 0  XYZ 
  end
  begin
     id 7 
     name rfemur
     direction -0.34202 -0.939693 0   
     length 7.14609   
     axis 0 0 -20   XYZ
    dof rx ry rz
    limits (-160.0 20.0)
           (-70.0 70.0)
           (-70.0 60.0)
  end
  begin
     id 8 
     name rtibia
     direction -0.34202 -0.939693 0   
     length 6.78101   
     axis 0 0 -20   XYZ
    dof rx
    limits (-10.0 170.0)
 end
 begin
     id 9 
     name rfoot
     direction -0.0992671 -0.272734 0.956955   
     length 1.96168  
     axis -90 -7.62852e-016 -20   XYZ
    dof rx rz
    limits (-45.0 90.0)
           (-20.0 70.0)
  end
  begin
     id 10 
     name rtoes
     direction -1.5356e-011 -4.21891e-011 1   
     length 0.982933   
     axis -90 -7.62852e-016 -20   XYZ
    dof rx
    limits (-90.0 20.0)
  end
  begin
     id 11 
     name lowerback
     direction -0.00596953 0.998668 0.0512524   
     length 1.87557   
     axis 0 0 0   XYZ
    dof rx ry rz
    limits (-20.0 45.0)
           (-30.0 30.0)
           (-30.0 30.0)
  end
  begin
     id 12 
     name upperback
     direction 0.00584879 0.999652 0.0257308   
     length 1.87883   
     axis 0 0 0   XYZ
    dof rx ry rz
    limits (-20.0 45.0)
           (-30.0 30.0)
           (-30.0 30.0)
  end
  begin
     id 13 
     name thorax
     direction 0.010104 0.999947 0.00178881   
     length 1.87779   
     axis 0 0 0   XYZ
    dof rx ry rz
    limits (-20.0 45.0)
           (-30.0 30.0)
           (-30.0 30.0)
  end
  begin
     id 14 
     name lowerneck
     direction 0.0120771 0.995934 -0.0892773   
     length 1.40897   
     axis 0 0 0   XYZ
    dof rx ry rz
    limits (-20.0 45.0)
           (-30.0 30.0)
           (-30.0 30.0)
  end
  begin
     id 15 
     name upperneck
     direction -0.030568 0.999465 -0.0116366   
     length 1.38661   
     axis 0 0 0   XYZ
    dof rx ry rz
    limits (-20.0 45.0)
           (-30.0 30.0)
           (-30.0 30.0)
  end
  begin
     id 16
     name head
     direction -0.0170715 0.999854 -0.00104426  
     length 1.47052  
     axis 0 0 0   XYZ
    dof rx ry rz
    limits (-20.0 45.0)
           (-30.0 30.0)
           (-30.0 30.0)
  end
  begin
     id 17 
     name lclavicle
     direction 0.977763 0.206143 0.038532  
     length 3.02424  
     axis 0 0 0   XYZ
    dof ry rz
    limits (-20.0 10.0)
           (0.0 20.0)
  end
  begin
     id 18 
     name lhumerus
     direction 1 -4.48965e-011 -2.62654e-027   
     length 4.68382   
     axis 180 -30 -90   XYZ
    dof rx ry rz
    limits (-60.0 90.0)
           (-90.0 90.0)
           (-90.0 90.0)
  end
  begin
     id 19
     name lradius
     direction 1 -4.48973e-011 -1.54954e-027   
     length 2.98124   
     axis 180 -30 -90   XYZ
    dof rx
    limits (-10.0 170.0)
  end
  begin
     id 20
     name lwrist
     direction 1 -4.48959e-011 7.20928e-028   
     length 1.49062   
     axis -5.52449e-016 90 90   XYZ
    dof ry
    limits (-180.0 0.0)
 end
  begin
     id 21 
     name lhand
     direction 1 -4.48971e-011 1.44186e-027   
     length 0.707595   
     axis -9.20027e-016 90 90   XYZ
    dof rx rz
    limits (-90.0 90.0)
           (-45.0 45.0)
  end
  begin
     id 22 
     name lfingers
     direction 1 -4.48985e-011 2.88371e-027   
     length 0.570481   
     axis -1.84005e-015 90 90   XYZ
    dof rx
    limits (0.0 90.0)
  end
  begin
     id 23
     name lthumb
     direction 0.707107 -6.34929e-011 0.707107   
     length 0.819101   
     axis -90 45 2.85299e-015   XYZ
    dof rx rz
    limits (-45.0 45.0)
           (-45.0 45.0)
  end
  begin
     id 24 
     name rclavicle
     direction -0.958661 0.284411 -0.00895327   
     length 3.11921  
     axis 0 0 0   XYZ 
    dof ry rz
    limits (-10.0 20.0)
           (-20.0 0.0)
  end
  begin
     id 25 
     name rhumerus
     direction -1 -4.48963e-011 -4.22193e-027  
     length 4.75876   
     axis 180 30 90   XYZ
    dof rx ry rz
    limits (-90.0 60.0)
           (-90.0 90.0)
           (-90.0 90.0)
  end
  begin
     id 26 
     name rradius
     direction -1 -4.48968e-011 -1.07616e-027   
     length 2.93293   
     axis 180 30 90   XYZ
    dof rx
    limits (-10.0 170.0)
  end
  begin
     id 27 
     name rwrist
     direction -1 -4.48965e-011 7.20928e-028   
     length 1.46647   
     axis -5.52449e-016 -90 -90   XYZ
    dof ry
    limits (-180.0 0.0)
  end
  begin
     id 28
     name rhand
     direction -1 -4.48971e-011 1.44186e-027   
     length 0.831748   
     axis -9.20027e-016 -90 -90   XYZ
    dof rx rz
    limits (-90.0 90.0)
           (-45.0 45.0)
  end
  begin
     id 29
     name rfingers
     direction -1 -4.48961e-011 2.88371e-027   
     length 0.670577   
     axis -1.84005e-015 -90 -90   XYZ
    dof rx
    limits (0.0 90.0)
  end
  begin
     id 30
     name rthumb
     direction -0.707107 -6.34929e-011 0.707107   
     length 0.962818   
     axis -90 -45 -2.85299e-015   XYZ
    dof rx rz
    limits (-45.0 45.0)
           (-45.0 45.0)
  end
:hierarchy
  begin
    root lhipjoint rhipjoint lowerback
    lhipjoint lfemur
    lfemur ltibia
    ltibia lfoot
    lfoot ltoes
    rhipjoint rfemur
    rfemur rtibia
    rtibia rfoot
    rfoot rtoes
    lowerback upperback
    upperback thorax
    thorax lowerneck lclavicle rclavicle
    lowerneck upperneck
    upperneck head
    lclavicle lhumerus
    lhumerus lradius
    lradius lwrist
    lwrist lhand lthumb
    lhand lfingers
    rclavicle rhumerus
    rhumerus rradius
    rradius rwrist
    rwrist rhand rthumb
    rhand rfingers
  end

#!OML:ASF E:\id_vita\Project 1\Capture day 1\Session 1\Female.ASF
:FULLY-SPECIFIED
:DEGREES
761
root 5.98678 27.6352 0.0860693 -175.787 93.7235 -210.043
lowerback -7.05764 0.482265 -5.66437
upperback -1.45413 1.11969 -0.658305
thorax 2.35839 0.542322 2.60007
lowerneck -4.55722 2.37834 1.26566
upperneck 14.2509 3.13899 1.08117
head 5.03186 1.7376 0.310209
rclavicle -1.98785e-015 -3.06128e-014
rhumerus 60.1765 2.04002 -22.0367
rradius 41.7191
rwrist -0.840619
rhand -23.5397 3.81327
rfingers 7.12502
rthumb 2.92194 -26.1465
lclavicle -1.98785e-015 -3.06128e-014
lhumerus 68.1881 0.902216 46.0806
lradius 20.7678
lwrist -26.4843
lhand -23.3249 26.7942
lfingers 7.12502
lthumb 3.12934 56.751
rfemur -55.339 5.46467 18.8038
rtibia 45.8543
rfoot 2.8937 12.5352
rtoes -16.4676
lfemur -43.5187 -10.8149 -10.6865
ltibia 25.4885
lfoot -9.28421 11.8246
ltoes -5.41739
762
root 5.9911 27.6406 0.0898822 -175.918 93.6603 -210.156
lowerback -7.08638 0.441858 -5.63035
upperback -1.49394 1.06335 -0.619556
thorax 2.33788 0.515978 2.61639
lowerneck -4.42183 2.35037 0.798413
upperneck 14.3361 3.11113 1.38842
head 5.02198 1.72129 0.479005
rclavicle 3.97569e-015 2.74323e-014
rhumerus 60.1414 2.42031 -21.9311
rradius 41.7564
rwrist -1.01441
rhand -23.6392 3.60604
rfingers 7.12502
rthumb 2.82581 -26.355
lclavicle 3.97569e-015 2.74323e-014
lhumerus 67.8827 0.902599 45.8861
lradius 20.8959
lwrist -26.6601
lhand -23.3007 26.6797
lfingers 7.12502
lthumb 3.15275 56.6362
rfemur -55.1801 5.42391 18.8379
rtibia 45.6621
rfoot 2.90648 12.4047
rtoes -16.0066
lfemur -43.4762 -10.8254 -10.7229
ltibia 25.4673
lfoot -8.98285 11.7079
ltoes -5.29123
763
root 5.99552 27.6455 0.0943196 -174.94 93.5948 -209.114
lowerback -7.09686 0.434987 -5.70768
upperback -1.55866 1.05895 -0.595868
thorax 2.27506 0.516941 2.68346
lowerneck -3.8477 2.33445 0.677982
upperneck 14.0557 3.10944 1.40306
head 4.83595 1.71427 0.491649
rclavicle -4.37326e-015 3.97569e-014
rhumerus 59.8987 2.83117 -21.6848
rradius 41.8121
rwrist -1.29122
rhand -23.7544 3.48305
rfingers 7.12502
rthumb 2.71458 -26.4794
lclavicle -4.37326e-015 3.97569e-014
lhumerus 67.5861 0.688044 45.5104
lradius 20.9682
lwrist -26.3381
lhand -23.3537 27.0016
lfingers 7.12502
lthumb 3.10156 56.9588
rfemur -54.9862 5.35604 18.8072
rtibia 45.4849
rfoot 2.7353 12.4193
rtoes -16.3372
lfemur -43.3851 -10.8613 -10.8527
ltibia 25.4574
lfoot -8.82752 11.7219
ltoes -5.8726
764
root 5.99736 27.6483 0.0976779 -175.773 93.5141 -209.926
lowerback -7.15693 0.445061 -5.64257
upperback -1.55049 1.07161 -0.585412
thorax 2.31697 0.522222 2.65997
lowerneck -3.43284 2.39805 1.10605
upperneck 13.6663 3.21594 0.984734
head 4.66054 1.75947 0.288217
rclavicle -1.43125e-014 -9.14409e-015
rhumerus 59.76 3.00114 -21.6387
rradius 41.6907
rwrist -1.29605
rhand -23.7085 3.47435
rfingers 7.12502
rthumb 2.75891 -26.4876
lclavicle -1.43125e-014 -9.14409e-015
lhumerus 67.4619 0.348445 44.6404
lradius 21.1004
lwrist -25.2024
lhand -24.2818 27.8437
lfingers 7.12502
lthumb 2.20524 57.8121
rfemur -54.8313 5.30351 18.8899
rtibia 45.3155
rfoot 2.5654 12.4007
rtoes -16.9005
lfemur -43.3704 -10.8786 -10.8373
ltibia 25.4471
lfoot -8.86403 11.6927
ltoes -6.27929
765
root 5.99845 27.6508 0.1008 -177.568 93.4567 -211.704
lowerback -7.24901 0.478658 -5.49029
upperback -1.46983 1.11314 -0.601982
thorax 2.45171 0.537989 2.56344
lowerneck -3.30209 2.46907 1.65368
upperneck 12.922 3.31811 0.542976
head 4.91583 1.80414 0.0723893
rclavicle -9.34288e-015 -1.27222e-014
rhumerus 59.6875 2.97682 -21.8188
rradius 41.5204
rwrist -1.09782
rhand -23.4524 3.46491
rfingers 7.12502
rthumb 3.00621 -26.4936
lclavicle -9.34288e-015 -1.27222e-014
lhumerus 67.6436 0.331057 44.7407
lradius 21.0457
lwrist -25.3694
lhand -24.6627 28.0482
lfingers 7.12502
lthumb 1.8373 58.02
rfemur -54.6934 5.30749 19.0148
rtibia 45.1569
rfoot 2.53709 12.2501
rtoes -17.099
lfemur -43.3783 -10.8552 -10.7486
ltibia 25.4339
lfoot -9.15691 11.7
ltoes -5.75202
